# xmcd
# 
# Track frame offsets:
#     150
#     14972
#     37695
#     53597
#     75001
#     87931
#     110651
#     131796
#     145996
#     164792
#     181852
#     201127
# 
# Disc length: 2871
# 
# Revision: 1
# Processed by: cddbd v1.5.2PL0 Copyright (c) Steve Scherf et al.
# Submitted via: fre:ac v1.0.27
# 
DISCID=9d0b350c
DTITLE=Declan O'Rourke - Big Bad Beautiful World
DYEAR=0
DGENRE=Folk
TTITLE0=Big Bad Beautiful World
TTITLE1=Save Your Soul
TTITLE2=Make Something
TTITLE3=Whatever Else Happens
TTITLE4=Man Of Peace
TTITLE5=Just To Be Friends
TTITLE6=One Day In A War
TTITLE7=Bein Your Friend
TTITLE8=A Song On Love And Hate
TTITLE9=Stay In Sight
TTITLE10=Silly Days
TTITLE11=Twinkle Twinkle (Bonus Track)
EXTD=
EXTT0=
EXTT1=
EXTT2=
EXTT3=
EXTT4=
EXTT5=
EXTT6=
EXTT7=
EXTT8=
EXTT9=
EXTT10=
EXTT11=
PLAYORDER=
